<svg width="0" height="0" class="hidden">
  <symbol xmlns="http://www.w3.org/2000/svg" viewBox="0 0 24 24" id="sprites-icon-menu">
    <path stroke-linecap="round" stroke-width="2" d="M5 7h14M5 12h14M5 17h14"/>
  </symbol>
  <symbol xmlns="http://www.w3.org/2000/svg" viewBox="0 0 24 24" id="sprites-icon-close">
    <path stroke-linecap="round" stroke-linejoin="round" stroke-width="2" d="M6 18 17.94 6M18 18 6.06 6"/>
  </symbol>
  <symbol xmlns="http://www.w3.org/2000/svg" viewBox="0 0 24 24" id="sprites-icon-facebook">
    <path d="M24 12C24 5.4 18.6 0 12 0S0 5.4 0 12C0 17.6 3.9 22.3 9.1 23.6V15.7H6.6V12h2.5V10.4c0-4.4 2-6.4 6.1-6.4c0.8 0 2.1 0.2 2.6 0.3V8.1c-0.3 0-0.8 0-1.4 0c-2.3 0-3.2 0.9-3.2 3.1V12h4.6l-0.8 4.1H13.5V23.9C19.4 23.1 24 18.2 24 12z"/>
  </symbol>
  <symbol xmlns="http://www.w3.org/2000/svg" viewBox="0 0 24 24" id="sprites-icon-location">
    <path fill-rule="evenodd" clip-rule="evenodd" d="M11.906 1.994a8.002 8.002 0 0 1 8.09 8.421 7.996 7.996 0 0 1-1.297 3.957.996.996 0 0 1-.133.204l-.108.129c-.178.243-.37.477-.573.699l-5.112 6.224a1 1 0 0 1-1.545 0L5.982 15.26l-.002-.002a18.146 18.146 0 0 1-.309-.38l-.133-.163a.999.999 0 0 1-.13-.202 7.995 7.995 0 0 1 6.498-12.518ZM15 9.997a3 3 0 1 1-5.999 0 3 3 0 0 1 5.999 0Z"/>
  </symbol>
  <symbol xmlns="http://www.w3.org/2000/svg" viewBox="0 0 24 24" id="sprites-icon-list">
    <path stroke-linecap="round" stroke-linejoin="round" stroke-width="2" d="M15 4h3a1 1 0 0 1 1 1v15a1 1 0 0 1-1 1H6a1 1 0 0 1-1-1V5a1 1 0 0 1 1-1h3m0 3h6m-3 5h3m-6 0h.01M12 16h3m-6 0h.01M10 3v4h4V3h-4Z"/>
  </symbol>
  <symbol xmlns="http://www.w3.org/2000/svg" viewBox="0 0 24 24" id="sprites-icon-gmail">
    <path fill-rule="evenodd" clip-rule="evenodd" stroke-width="10" d="M22.288 21h-20.576c-.945 0-1.712-.767-1.712-1.712v-13.576c0-.945.767-1.712 1.712-1.712h20.576c.945 0 1.712.767 1.712 1.712v13.576c0 .945-.767 1.712-1.712 1.712zm-10.288-6.086l-9.342-6.483-.02 11.569h18.684v-11.569l-9.322 6.483zm8.869-9.914h-17.789l8.92 6.229s6.252-4.406 8.869-6.229z"/>
  </symbol>
  
</svg>

