<svg width="0" height="0" class="hidden">
  <symbol xmlns="http://www.w3.org/2000/svg" viewBox="0 0 24 24" id="sprites-icon-menu">
    <path stroke-linecap="round" stroke-width="2" d="M5 7h14M5 12h14M5 17h14"/>
  </symbol>
  <symbol xmlns="http://www.w3.org/2000/svg" viewBox="0 0 24 24" id="sprites-icon-close">
    <path stroke-linecap="round" stroke-linejoin="round" stroke-width="2" d="M6 18 17.94 6M18 18 6.06 6"/>
  </symbol>
  <symbol xmlns="http://www.w3.org/2000/svg" viewBox="0 0 24 24" id="sprites-icon-facebook">
    <path d="M24 12C24 5.4 18.6 0 12 0S0 5.4 0 12C0 17.6 3.9 22.3 9.1 23.6V15.7H6.6V12h2.5V10.4c0-4.4 2-6.4 6.1-6.4c0.8 0 2.1 0.2 2.6 0.3V8.1c-0.3 0-0.8 0-1.4 0c-2.3 0-3.2 0.9-3.2 3.1V12h4.6l-0.8 4.1H13.5V23.9C19.4 23.1 24 18.2 24 12z"/>
  </symbol>
</svg>

